<?xml version="1.0" encoding="UTF-8" standalone="no"?>
<!-- Created with Inkscape (http://www.inkscape.org/) -->

<svg
   width="262mm"
   height="73.062309mm"
   viewBox="0 0 262 73.062309"
   version="1.1"
   id="svg5"
   inkscape:version="1.1.1 (3bf5ae0d25, 2021-09-20)"
   sodipodi:docname="logo ABSP min size.svg"
   inkscape:export-filename="D:\Documents\These\BSP RProject\logo\logo ABSP colored S.png"
   inkscape:export-xdpi="600"
   inkscape:export-ydpi="600"
   xmlns:inkscape="http://www.inkscape.org/namespaces/inkscape"
   xmlns:sodipodi="http://sodipodi.sourceforge.net/DTD/sodipodi-0.dtd"
   xmlns="http://www.w3.org/2000/svg"
   xmlns:svg="http://www.w3.org/2000/svg">
  <sodipodi:namedview
     id="namedview7"
     pagecolor="#ffffff"
     bordercolor="#666666"
     borderopacity="1.0"
     inkscape:pageshadow="2"
     inkscape:pageopacity="0.0"
     inkscape:pagecheckerboard="0"
     inkscape:document-units="mm"
     showgrid="false"
     inkscape:object-paths="true"
     inkscape:snap-intersection-paths="true"
     inkscape:snap-smooth-nodes="true"
     inkscape:snap-midpoints="true"
     inkscape:snap-object-midpoints="true"
     inkscape:zoom="0.67521728"
     inkscape:cx="242.14428"
     inkscape:cy="397.64978"
     inkscape:window-width="2560"
     inkscape:window-height="1377"
     inkscape:window-x="-8"
     inkscape:window-y="-8"
     inkscape:window-maximized="1"
     inkscape:current-layer="layer1"
     width="322mm"
     fit-margin-top="0"
     fit-margin-left="0"
     fit-margin-right="0"
     fit-margin-bottom="0" />
  <defs
     id="defs2" />
  <g
     inkscape:label="Calque 1"
     inkscape:groupmode="layer"
     id="layer1"
     transform="translate(-30,-30)">
    <circle
       style="fill:#1e2934;fill-opacity:0.2;stroke-width:0.143621"
       id="path7413-1-3-6"
       cx="135.09357"
       cy="66.660301"
       r="17"
       inkscape:export-filename="D:\Documents\These\BSP RProject\logo\logo ABSP colored S.png"
       inkscape:export-xdpi="600"
       inkscape:export-ydpi="600" />
    <circle
       style="fill:#1e2934;fill-opacity:0.2;stroke-width:0.143621"
       id="path7413-1-3-6-9"
       cx="247.20001"
       cy="66.402"
       r="17"
       inkscape:export-filename="D:\Documents\These\BSP RProject\logo\logo ABSP colored S.png"
       inkscape:export-xdpi="600"
       inkscape:export-ydpi="600" />
    <rect
       style="fill:#1e2934;fill-opacity:0.984314;stroke-width:0.260926"
       id="rect898-2"
       width="64.199997"
       height="5"
       x="159.8"
       y="63.902"
       inkscape:export-filename="D:\Documents\These\BSP RProject\logo\logo ABSP colored S.png"
       inkscape:export-xdpi="600"
       inkscape:export-ydpi="600" />
    <rect
       style="fill:#1e2934;fill-opacity:0.984314;stroke-width:0.222384"
       id="rect1565"
       width="20.200001"
       height="5"
       x="30"
       y="63.901848"
       inkscape:export-filename="D:\Documents\These\BSP RProject\logo\logo ABSP colored S.png"
       inkscape:export-xdpi="600"
       inkscape:export-ydpi="600" />
    <rect
       style="fill:#1e2934;fill-opacity:0.984314;stroke-width:0.222385"
       id="rect1565-9"
       width="20.200001"
       height="5"
       x="271.79999"
       y="63.901848"
       inkscape:export-filename="D:\Documents\These\BSP RProject\logo\logo ABSP colored S.png"
       inkscape:export-xdpi="600"
       inkscape:export-ydpi="600" />
    <rect
       style="fill:#1e2934;fill-opacity:0.984314;stroke-width:0.15957"
       id="rect1565-0"
       width="10.4"
       height="5"
       x="99.800003"
       y="63.901848"
       inkscape:export-filename="D:\Documents\These\BSP RProject\logo\logo ABSP colored S.png"
       inkscape:export-xdpi="600"
       inkscape:export-ydpi="600" />
    <path
       id="path1959"
       style="fill:#40b7a0;fill-opacity:1;stroke-width:0.240409"
       d="M 75.000027,41.402 A 24.999999,24.999999 0 0 0 50,66.40202 24.999999,24.999999 0 0 0 75.000027,91.40203 H 100.00005 V 66.40202 A 24.999999,24.999999 0 0 0 75.000027,41.402 Z m 0,8.00003 a 17,17 0 0 1 16.999995,17 17,17 0 0 1 -0.22996,2.62722 17,17 0 0 1 -0.126609,0.69092 17,17 0 0 1 -0.589626,2.20142 17,17 0 0 1 -0.117825,0.37775 17,17 0 0 1 -1.104841,2.3699 17,17 0 0 1 -0.343646,0.5679 17,17 0 0 1 -1.235586,1.76527 17,17 0 0 1 -0.355015,0.45321 17,17 0 0 1 -1.843299,1.8433 17,17 0 0 1 -0.454237,0.35554 17,17 0 0 1 -1.760614,1.23352 17,17 0 0 1 -0.573093,0.34569 17,17 0 0 1 -2.367815,1.10432 17,17 0 0 1 -0.378272,0.11782 17,17 0 0 1 -2.199865,0.58913 17,17 0 0 1 -0.69298,0.12712 17,17 0 0 1 -2.626712,0.22995 17,17 0 0 1 -16.999998,-16.99998 17,17 0 0 1 16.999998,-17 z"
       inkscape:export-filename="D:\Documents\These\BSP RProject\logo\logo ABSP colored S.png"
       inkscape:export-xdpi="600"
       inkscape:export-ydpi="600" />
    <path
       id="path1472"
       style="fill:#1e2934;fill-opacity:0.984314;stroke-width:0.301122"
       d="M 191.25039,40.589365 A 21.249981,14.999999 0 0 0 170,55.589483 21.249981,14.999999 0 0 0 172.19935,62.2144 h 19.05104 a 12.749988,6.6249999 0 0 1 -12.75013,-6.624917 12.749988,6.6249999 0 0 1 12.75013,-6.624918 12.749988,6.6249999 0 0 1 12.75012,6.624918 h 8.49974 A 21.249981,14.999999 0 0 0 191.25039,40.589365 Z m 0,30.000235 a 12.749988,6.6249962 0 0 1 12.75012,6.624918 12.749988,6.6249962 0 0 1 -12.75012,6.624918 12.749988,6.6249962 0 0 1 -12.75013,-6.624918 H 170 a 21.249981,14.999999 0 0 0 21.25039,15.000118 21.249981,14.999999 0 0 0 21.24986,-15.000118 21.249981,14.999999 0 0 0 -2.18591,-6.624918 z"
       inkscape:export-filename="D:\Documents\These\BSP RProject\logo\logo ABSP colored S.png"
       inkscape:export-xdpi="600"
       inkscape:export-ydpi="600" />
    <path
       id="path1959-4"
       style="fill:#1e2934;fill-opacity:0.984314;stroke-width:0.240409"
       d="M 222.0935,41.402 V 66.40151 H 222 v 36.6608 h 8.09356 V 84.73217 A 24.999999,24.999999 0 0 0 247.09355,91.40204 24.999999,24.999999 0 0 0 272.09358,66.40202 24.999999,24.999999 0 0 0 247.09355,41.402 Z m 25.00002,8.00004 a 17,17 0 0 1 17,16.99998 17,17 0 0 1 -17,17 17,17 0 0 1 -16.99999,-17 v -5.3e-4 a 17,17 0 0 1 0.22996,-2.62671 17,17 0 0 1 0.12661,-0.69092 17,17 0 0 1 0.58962,-2.20141 17,17 0 0 1 0.11783,-0.37776 17,17 0 0 1 1.10484,-2.3704 17,17 0 0 1 0.34365,-0.5674 17,17 0 0 1 1.23558,-1.76527 17,17 0 0 1 0.35502,-0.45372 17,17 0 0 1 1.8433,-1.8433 17,17 0 0 1 0.45423,-0.35552 17,17 0 0 1 1.76062,-1.23352 17,17 0 0 1 0.57309,-0.34519 17,17 0 0 1 2.36781,-1.10433 17,17 0 0 1 0.37828,-0.11782 17,17 0 0 1 2.19986,-0.58911 17,17 0 0 1 0.69298,-0.12765 17,17 0 0 1 2.62671,-0.22944 z"
       inkscape:export-filename="D:\Documents\These\BSP RProject\logo\logo ABSP colored S.png"
       inkscape:export-xdpi="600"
       inkscape:export-ydpi="600" />
    <path
       id="path1959-4-3"
       style="fill:#1e2934;fill-opacity:0.984314;stroke-width:0.240409"
       d="M 110,30.00001 V 66.6603 h 0.0935 v 25.00002 h 25.00002 A 24.999999,24.999999 0 0 0 160.09354,66.6603 24.999999,24.999999 0 0 0 135.09352,41.66027 24.999999,24.999999 0 0 0 118.09353,48.33015 V 30 Z m 25.09356,19.6603 a 17,17 0 0 1 17,16.99999 17,17 0 0 1 -17,17 17,17 0 0 1 -2.62671,-0.22998 17,17 0 0 1 -0.69298,-0.1271 17,17 0 0 1 -2.19987,-0.58912 17,17 0 0 1 -0.37827,-0.11782 17,17 0 0 1 -2.36781,-1.10432 17,17 0 0 1 -0.5731,-0.34573 17,17 0 0 1 -1.76061,-1.23352 17,17 0 0 1 -0.45424,-0.35552 17,17 0 0 1 -1.8433,-1.8433 17,17 0 0 1 -0.35501,-0.4532 17,17 0 0 1 -1.23559,-1.76527 17,17 0 0 1 -0.34364,-0.56793 17,17 0 0 1 -1.10485,-2.36988 17,17 0 0 1 -0.11782,-0.37777 17,17 0 0 1 -0.58963,-2.2014 17,17 0 0 1 -0.1266,-0.69091 17,17 0 0 1 -0.22996,-2.62723 17,17 0 0 1 16.99999,-16.99999 z"
       inkscape:export-filename="D:\Documents\These\BSP RProject\logo\logo ABSP colored S.png"
       inkscape:export-xdpi="600"
       inkscape:export-ydpi="600" />
  </g>
</svg>
